<?xml version="1.0" encoding="UTF-8" standalone="no" ?>
<!DOCTYPE svg PUBLIC "-//W3C//DTD SVG 1.1//EN" "http://www.w3.org/Graphics/SVG/1.1/DTD/svg11.dtd">
<svg xmlns="http://www.w3.org/2000/svg" xmlns:xlink="http://www.w3.org/1999/xlink" version="1.1" width="1280" height="1024" viewBox="0 0 1280 1024" xml:space="preserve">
<desc>Created with Fabric.js 5.3.0</desc>
<defs>
</defs>
<g transform="matrix(1 0 0 1 640 512)" id="background-logo"  >
<rect style="stroke: none; stroke-width: 0; stroke-dasharray: none; stroke-linecap: butt; stroke-dashoffset: 0; stroke-linejoin: miter; stroke-miterlimit: 4; fill: rgb(255,255,255); fill-opacity: 0; fill-rule: nonzero; opacity: 1;"  paint-order="stroke"  x="-640" y="-512" rx="0" ry="0" width="1280" height="1024" />
</g>
<g transform="matrix(1.9211538461538462 0 0 1.9211538461538462 640.7220870774264 730.3839190604315)" id="text-logo"  >
<g style=""  paint-order="stroke"   >
		<g transform="matrix(1 0 0 1 0 0)" id="text-logo-path-0"  >
<path style="stroke: none; stroke-width: 0; stroke-dasharray: none; stroke-linecap: butt; stroke-dashoffset: 0; stroke-linejoin: miter; stroke-miterlimit: 4; fill: rgb(255,145,84); fill-rule: nonzero; opacity: 1;"  paint-order="stroke"  transform=" translate(-135.305, 36.35)" d="M 40.04 -71.45 L 37.54 -72.9 L 35.67 -72.59 L 34.32 -72.59 L 32.66 -72.28 L 30.99 -73.11 L 29.64 -73.01 L 27.77 -72.9 L 26.21 -72.8 L 24.54 -72.59 L 23.3 -72.38 L 21.63 -72.49 L 19.97 -73.01 L 18.2 -72.8 L 16.95 -73.22 L 15.39 -73.22 L 13.52 -73.11 L 11.96 -72.49 L 10.5 -72.28 L 8.94 -72.28 L 7.07 -72.8 L 5.62 -70.93 L 5.51 -69.89 L 5.82 -68.43 L 5.93 -66.46 L 5.82 -65.42 L 5.72 -63.13 L 5.72 -61.57 L 5.82 -60.32 L 5.72 -59.28 L 5.82 -57.1 L 5.62 -55.95 L 5.82 -54.5 L 5.62 -52.83 L 5.93 -51.48 L 5.93 -50.02 L 5.72 -47.53 L 5.82 -46.18 L 5.93 -44.62 L 5.51 -43.26 L 5.82 -41.81 L 5.72 -40.35 L 5.93 -38.9 L 5.72 -37.54 L 5.62 -35.78 L 5.93 -34.22 L 5.93 -32.24 L 5.51 -30.78 L 5.51 -29.64 L 5.72 -28.29 L 5.62 -25.9 L 5.62 -24.75 L 5.93 -23.09 L 5.72 -21.53 L 5.82 -20.59 L 5.72 -18.82 L 5.51 -16.74 L 5.82 -15.39 L 5.93 -13.42 L 5.51 -12.06 L 5.93 -10.92 L 5.51 -8.74 L 5.82 -7.8 L 5.51 -6.66 L 5.82 -4.89 L 5.51 -2.7 L 5.62 -1.14 L 7.28 0 L 9.05 -0.1 L 10.3 -0.1 L 12.06 -0.31 L 13.83 0.21 L 15.18 -0.31 L 17.16 0.42 L 18.51 0.1 L 20.38 -1.04 L 20.18 -3.22 L 20.07 -5.2 L 20.18 -6.45 L 20.07 -8.11 L 20.07 -9.15 L 20.38 -11.23 L 20.28 -13 L 20.38 -14.04 L 20.38 -15.81 L 20.49 -17.16 L 20.49 -20.8 L 20.38 -22.36 L 21.84 -23.82 L 23.19 -23.61 L 24.86 -23.5 L 26.52 -24.23 L 28.08 -23.5 L 29.85 -23.71 L 31.2 -23.61 L 32.97 -24.13 L 34.42 -24.23 L 36.09 -23.82 L 37.34 -23.4 L 40.25 -24.75 L 41.18 -25.9 L 42.33 -27.66 L 43.68 -28.08 L 44.82 -29.95 L 45.86 -30.89 L 47.22 -31.82 L 48.26 -33.49 L 49.4 -35.46 L 49.61 -37.75 L 49.61 -39.42 L 49.4 -40.04 L 49.3 -41.91 L 49.19 -43.47 L 49.4 -45.03 L 49.5 -47.01 L 49.19 -48.46 L 49.61 -49.82 L 49.3 -51.9 L 49.19 -52.52 L 49.5 -54.39 L 49.4 -56.37 L 49.5 -57.82 L 49.4 -58.97 L 49.4 -61.26 L 48.26 -63.34 L 47.11 -64.69 L 45.66 -65.94 L 44.82 -66.98 L 43.78 -68.22 L 42.33 -69.06 L 41.29 -70.62 Z M 33.28 -58.34 L 34.84 -56.89 L 35.05 -54.7 L 35.05 -53.35 L 34.63 -52.42 L 34.74 -50.44 L 34.94 -49.5 L 34.94 -47.32 L 34.63 -45.66 L 34.84 -43.99 L 34.94 -42.74 L 34.74 -41.7 L 35.05 -40.14 L 33.38 -37.96 L 31.62 -38.9 L 30.16 -38.9 L 28.5 -38.06 L 26.94 -38.9 L 25.17 -38.79 L 23.4 -38.79 L 21.63 -38.27 L 20.28 -40.35 L 20.49 -40.98 L 20.28 -43.16 L 20.38 -44.93 L 20.18 -45.66 L 20.18 -47.32 L 20.07 -48.88 L 20.38 -50.65 L 20.07 -52.62 L 20.18 -53.56 L 20.07 -54.7 L 20.38 -57.1 L 22.05 -57.82 L 23.61 -58.03 L 24.86 -58.24 L 26.83 -58.14 L 28.18 -58.14 L 29.85 -58.55 L 31.3 -57.82 Z M 77.9 -72.7 L 74.98 -71.45 L 73.94 -70.51 L 73.01 -69.26 L 71.45 -68.12 L 70.62 -66.77 L 69.26 -65.83 L 68.43 -64.48 L 67.18 -63.96 L 66.14 -60.32 L 65.73 -59.18 L 65.94 -58.03 L 65.94 -54.6 L 65.73 -53.35 L 65.83 -51.79 L 65.83 -49.82 L 66.14 -48.36 L 65.73 -46.07 L 65.73 -45.24 L 66.14 -43.78 L 65.83 -42.12 L 66.04 -40.56 L 65.83 -39.1 L 66.04 -36.92 L 65.73 -35.36 L 65.83 -33.7 L 66.14 -32.24 L 65.94 -30.47 L 65.94 -27.56 L 66.04 -26.31 L 66.04 -24.96 L 65.94 -22.57 L 65.73 -21.32 L 65.73 -19.97 L 65.94 -17.89 L 66.14 -16.95 L 65.73 -15.08 L 65.94 -13.83 L 65.94 -12.17 L 67.29 -9.36 L 68.43 -7.59 L 69.26 -7.28 L 70.41 -5.62 L 71.55 -4.47 L 73.01 -3.54 L 75.19 -1.04 L 77.58 -0.31 L 79.46 0.42 L 80.81 0.31 L 82.58 0.31 L 83.82 -0.21 L 85.7 -0.31 L 86.94 -0.42 L 88.3 0.42 L 89.86 -0.1 L 91.42 -0.1 L 93.29 0 L 94.43 -0.21 L 96.3 -0.42 L 97.55 0.42 L 100.46 -1.04 L 101.5 -1.87 L 102.86 -3.43 L 104 -4.26 L 105.14 -5.3 L 105.87 -6.45 L 107.22 -8.01 L 108.16 -9.26 L 109.72 -12.17 L 109.72 -13.83 L 109.41 -14.56 L 109.41 -16.33 L 109.62 -18.51 L 109.82 -20.18 L 109.72 -21.63 L 109.82 -23.3 L 109.72 -24.86 L 109.51 -26.62 L 109.72 -27.98 L 109.51 -29.22 L 109.72 -30.99 L 109.51 -32.66 L 109.72 -34.32 L 109.62 -35.67 L 109.41 -36.82 L 109.62 -38.27 L 109.72 -40.25 L 109.72 -43.37 L 109.41 -44.62 L 109.51 -46.18 L 109.51 -48.15 L 109.82 -49.61 L 109.41 -51.27 L 109.41 -53.14 L 109.72 -53.98 L 109.41 -56.16 L 109.72 -58.03 L 109.82 -58.76 L 109.62 -61.26 L 108.47 -63.44 L 107.12 -65 L 106.18 -65.73 L 104.73 -66.77 L 104 -67.7 L 102.86 -69.06 L 101.4 -70.51 L 100.57 -71.14 L 97.45 -72.7 L 96.3 -72.38 L 94.54 -72.7 L 92.98 -73.01 L 91.31 -73.22 L 90.06 -72.7 L 88.5 -72.7 L 86.74 -73.01 L 85.28 -73.11 L 83.82 -72.28 L 82.16 -73.11 L 81.02 -72.9 L 79.25 -73.01 Z M 95.16 -15.81 L 93.18 -14.77 L 91.73 -14.56 L 90.17 -14.35 L 88.61 -14.56 L 87.05 -14.04 L 85.49 -14.04 L 83.62 -14.46 L 82.06 -14.35 L 80.6 -15.81 L 80.6 -19.66 L 80.39 -21.11 L 80.7 -22.36 L 80.7 -25.17 L 80.5 -27.46 L 80.5 -31.72 L 80.6 -33.49 L 80.5 -35.15 L 80.29 -36.82 L 80.5 -38.17 L 80.7 -39.21 L 80.39 -41.29 L 80.6 -42.54 L 80.6 -44.2 L 80.7 -46.07 L 80.5 -47.63 L 80.29 -48.98 L 80.6 -50.65 L 80.39 -52.21 L 80.6 -53.56 L 80.6 -54.91 L 80.29 -56.78 L 81.85 -58.55 L 83.62 -57.72 L 85.49 -57.72 L 87.15 -58.03 L 88.61 -57.82 L 90.27 -58.55 L 91.73 -57.82 L 93.18 -57.93 L 94.95 -56.89 L 94.85 -55.02 L 95.26 -53.56 L 95.16 -51.69 L 95.06 -50.65 L 95.06 -48.88 L 94.85 -47.74 L 95.26 -45.45 L 95.26 -43.68 L 94.85 -42.95 L 95.16 -40.98 L 95.26 -39.83 L 95.06 -38.17 L 94.95 -36.4 L 94.85 -34.53 L 95.06 -33.18 L 94.95 -32.14 L 95.16 -30.16 L 94.85 -28.39 L 95.26 -27.25 L 94.85 -25.58 L 94.85 -23.61 L 95.16 -21.94 L 95.06 -21.01 L 95.16 -18.93 L 94.95 -17.78 Z M 125.84 -72.9 L 125.01 -71.14 L 124.9 -69.58 L 125.63 -67.91 L 125.94 -66.46 L 126.26 -65 L 126.67 -64.17 L 126.67 -61.88 L 127.3 -60.94 L 127.61 -59.38 L 128.13 -57.2 L 128.23 -55.74 L 128.75 -54.29 L 129.06 -52.62 L 129.06 -51.48 L 129.38 -49.5 L 129.79 -48.15 L 130.52 -47.01 L 130.83 -45.55 L 130.83 -44.3 L 131.46 -42.74 L 131.77 -41.18 L 131.87 -38.9 L 132.39 -37.75 L 132.5 -35.88 L 132.91 -35.26 L 133.54 -33.8 L 133.54 -32.03 L 134.06 -30.68 L 134.26 -29.22 L 134.99 -27.35 L 135.41 -25.38 L 135.51 -24.34 L 136.03 -22.57 L 136.14 -20.8 L 136.66 -20.18 L 136.76 -18.51 L 137.49 -16.22 L 137.7 -14.77 L 137.8 -13.94 L 138.22 -12.27 L 138.84 -10.5 L 138.94 -9.57 L 139.57 -8.01 L 139.88 -6.14 L 140.09 -4.68 L 140.61 -3.43 L 140.71 -1.14 L 142.69 -0.1 L 144.25 -0.42 L 145.91 0.52 L 147.37 -0.42 L 152.36 -0.42 L 154.23 0 L 156 -1.98 L 156.31 -3.02 L 156.52 -4.68 L 157.25 -5.72 L 157.56 -7.49 L 157.87 -9.46 L 157.87 -10.82 L 158.29 -11.96 L 158.7 -13.94 L 159.33 -14.98 L 159.22 -16.64 L 160.06 -17.68 L 160.37 -19.97 L 160.68 -21.53 L 160.99 -23.19 L 161.41 -24.23 L 161.3 -25.9 L 161.93 -26.83 L 162.45 -29.12 L 162.55 -30.68 L 162.97 -31.51 L 163.28 -32.86 L 163.38 -34.42 L 164.11 -36.5 L 164.42 -38.17 L 164.53 -39.73 L 165.46 -39.73 L 165.57 -38.38 L 166.09 -35.88 L 166.5 -34.94 L 166.61 -33.07 L 167.13 -31.41 L 167.54 -30.37 L 167.96 -28.7 L 168.48 -26.1 L 168.69 -23.82 L 169 -22.36 L 169.52 -21.01 L 170.04 -19.45 L 170.25 -17.89 L 170.66 -16.95 L 170.66 -15.08 L 171.29 -13.83 L 171.5 -12.17 L 172.12 -10.92 L 172.54 -9.57 L 172.54 -8.01 L 173.16 -6.03 L 173.47 -4.99 L 173.89 -3.22 L 174.2 -1.56 L 175.86 -0.42 L 177.74 0 L 179.4 -0.42 L 180.86 -0.31 L 182.31 0.52 L 183.98 0.1 L 185.54 0 L 187.41 0.21 L 189.07 -1.87 L 189.49 -2.6 L 190.22 -4.47 L 190.11 -5.82 L 190.42 -7.59 L 191.26 -9.26 L 191.57 -10.5 L 191.57 -12.17 L 191.88 -13.21 L 192.19 -14.66 L 192.5 -16.95 L 193.23 -17.78 L 193.23 -19.86 L 193.75 -21.42 L 194.06 -22.36 L 194.27 -24.02 L 194.69 -25.58 L 195.42 -26.83 L 195.73 -28.7 L 195.62 -30.78 L 196.14 -32.24 L 196.35 -33.49 L 196.66 -35.15 L 197.18 -35.98 L 197.81 -37.86 L 197.81 -39 L 198.33 -40.56 L 198.43 -42.33 L 199.06 -43.68 L 199.47 -45.97 L 199.78 -47.01 L 200.1 -48.67 L 200.2 -50.44 L 200.62 -51.06 L 201.24 -52.62 L 201.34 -54.81 L 201.86 -56.37 L 202.18 -57.93 L 202.49 -59.38 L 202.7 -61.05 L 203.01 -62.09 L 203.53 -63.54 L 203.94 -65.42 L 204.36 -66.87 L 204.36 -68.02 L 204.88 -69.78 L 205.3 -70.93 L 204.15 -73.22 L 202.28 -72.28 L 200.62 -73.11 L 199.26 -72.49 L 197.29 -73.01 L 195.73 -72.38 L 194.27 -73.22 L 192.71 -72.38 L 190.42 -71.66 L 190.11 -69.47 L 190.22 -68.02 L 189.38 -66.56 L 189.18 -64.9 L 189.07 -63.23 L 188.76 -62.61 L 188.34 -60.42 L 187.72 -59.38 L 187.41 -57.2 L 186.99 -55.54 L 186.99 -54.39 L 186.68 -53.04 L 186.37 -51.9 L 186.06 -49.92 L 185.64 -48.67 L 185.22 -47.22 L 184.91 -45.86 L 184.18 -43.47 L 184.08 -42.33 L 183.77 -40.77 L 183.14 -39.31 L 183.04 -37.34 L 182.73 -36.3 L 182.42 -34.84 L 181.79 -33.38 L 181.06 -33.7 L 181.06 -34.74 L 180.75 -36.3 L 180.02 -38.27 L 180.02 -39.31 L 179.61 -40.77 L 179.09 -42.54 L 178.88 -43.89 L 178.46 -45.66 L 178.26 -46.59 L 177.84 -48.57 L 177.32 -49.92 L 176.9 -51.48 L 176.9 -52.83 L 176.28 -54.6 L 176.28 -56.26 L 175.86 -58.03 L 175.66 -59.59 L 174.93 -61.05 L 174.51 -62.3 L 174.2 -63.96 L 173.78 -65.42 L 173.58 -66.66 L 173.47 -68.12 L 172.85 -69.58 L 172.43 -71.03 L 170.77 -72.49 L 169.21 -72.59 L 167.65 -73.22 L 165.98 -73.22 L 164.42 -72.28 L 162.66 -72.28 L 161.2 -72.49 L 159.22 -72.8 L 157.46 -70.82 L 157.04 -70.2 L 156.52 -68.12 L 156.42 -66.98 L 156.1 -64.79 L 155.58 -63.34 L 155.48 -62.61 L 154.96 -60.53 L 154.54 -59.59 L 154.44 -57.2 L 154.02 -56.37 L 153.5 -54.6 L 153.3 -52.73 L 152.88 -51.06 L 152.46 -50.34 L 152.15 -48.05 L 151.74 -46.59 L 151.32 -45.45 L 150.9 -44.41 L 150.8 -42.54 L 150.18 -41.08 L 150.18 -39.52 L 149.86 -38.06 L 149.14 -35.88 L 148.93 -34.32 L 148.82 -33.59 L 148.1 -33.59 L 147.68 -35.26 L 147.16 -35.98 L 146.85 -38.17 L 146.85 -39.73 L 146.12 -40.66 L 145.7 -42.12 L 145.6 -44.2 L 145.18 -45.14 L 144.98 -46.9 L 144.35 -48.36 L 144.04 -50.34 L 143.73 -51.38 L 143.31 -53.46 L 143.21 -54.6 L 142.69 -55.95 L 142.48 -57.1 L 141.86 -59.07 L 141.65 -60.74 L 141.65 -61.67 L 140.92 -63.65 L 140.82 -65.52 L 140.5 -66.46 L 139.88 -67.91 L 139.88 -69.37 L 139.26 -71.24 L 137.18 -73.22 L 135.82 -73.11 L 134.26 -72.7 L 132.5 -72.9 L 131.14 -72.7 L 129.27 -72.7 L 127.92 -73.01 Z M 255.84 -71.86 L 252.93 -72.7 L 251.26 -72.7 L 249.6 -73.22 L 248.35 -72.28 L 246.48 -72.28 L 244.71 -73.01 L 243.26 -72.9 L 241.59 -73.22 L 240.24 -72.7 L 238.68 -73.11 L 237.02 -72.49 L 235.35 -73.01 L 233.79 -73.11 L 230.67 -72.9 L 229.22 -73.11 L 227.45 -72.8 L 226.1 -73.22 L 224.12 -73.11 L 222.66 -72.7 L 221 -71.03 L 221.1 -69.99 L 221.42 -68.43 L 221.31 -66.77 L 221 -65.42 L 221.31 -63.96 L 221 -62.09 L 221.1 -60.74 L 221.42 -59.28 L 221.21 -57.62 L 221.21 -55.74 L 221.1 -53.66 L 221.21 -52.1 L 221.1 -51.48 L 221 -49.5 L 221.42 -47.53 L 221.21 -46.49 L 221.42 -45.24 L 221.42 -43.78 L 221.1 -41.39 L 221.21 -40.35 L 221 -38.17 L 221.21 -37.23 L 221.31 -35.98 L 221.21 -34.32 L 221.1 -32.45 L 221.21 -30.78 L 221.1 -29.33 L 221 -28.08 L 221.42 -26.42 L 221.1 -24.23 L 221.1 -22.67 L 221 -21.74 L 221.42 -19.76 L 221.1 -18.82 L 221.21 -16.95 L 221.31 -15.18 L 221.42 -14.14 L 221 -12.27 L 221 -11.02 L 221.1 -8.84 L 221.42 -7.7 L 221.1 -5.72 L 221.1 -4.37 L 221.31 -3.33 L 221 -1.14 L 222.77 -0.1 L 224.43 0 L 226.2 0.42 L 227.55 0.52 L 229.32 0.42 L 231.09 0.42 L 232.23 0.52 L 233.9 -0.1 L 235.98 -1.56 L 235.56 -3.12 L 235.87 -5.1 L 235.77 -6.45 L 235.56 -7.7 L 235.98 -8.84 L 235.66 -10.5 L 235.66 -12.9 L 235.77 -13.83 L 235.66 -15.39 L 235.66 -16.85 L 235.98 -18.62 L 235.56 -19.76 L 235.77 -21.42 L 235.66 -23.61 L 237.54 -25.17 L 239.2 -25.06 L 240.34 -24.75 L 242.11 -25.17 L 243.57 -25.27 L 245.34 -24.54 L 247.1 -24.96 L 248.66 -25.38 L 250.22 -22.98 L 250.12 -21.53 L 250.12 -19.86 L 250.22 -18.3 L 250.43 -16.85 L 250.22 -15.6 L 250.12 -13.94 L 250.12 -12.58 L 250.54 -11.34 L 250.33 -9.78 L 250.54 -7.28 L 250.22 -6.34 L 250.12 -4.16 L 250.54 -3.43 L 250.33 -1.14 L 251.68 0.21 L 253.34 -0.21 L 254.9 0.52 L 256.57 0.42 L 258.23 -0.31 L 259.79 0.1 L 261.46 0.31 L 263.12 0.42 L 264.99 -1.56 L 264.89 -2.91 L 264.78 -4.89 L 264.68 -6.14 L 264.68 -7.9 L 264.78 -9.36 L 264.78 -13.62 L 264.89 -15.39 L 264.99 -17.47 L 264.89 -18.82 L 264.78 -19.97 L 264.99 -21.74 L 264.89 -23.5 L 263.64 -26.21 L 262.91 -27.35 L 261.56 -28.5 L 260.73 -29.43 L 259.79 -29.85 L 258.54 -30.89 L 258.65 -33.18 L 259.48 -34.42 L 260.52 -35.05 L 261.98 -36.09 L 262.81 -37.23 L 263.85 -38.38 L 264.78 -40.66 L 265.1 -42.64 L 264.68 -44.2 L 264.89 -45.24 L 264.99 -47.11 L 264.78 -48.78 L 264.78 -50.54 L 265.1 -51.17 L 264.68 -52.94 L 264.89 -54.29 L 264.78 -56.68 L 264.78 -57.41 L 264.99 -59.38 L 264.78 -60.42 L 263.43 -63.86 L 262.5 -64.58 L 261.56 -65.94 L 260 -66.98 L 259.06 -68.02 L 257.82 -69.68 L 256.57 -70.93 Z M 248.87 -57.82 L 250.33 -56.16 L 250.54 -55.54 L 250.33 -53.35 L 250.54 -52.31 L 250.33 -50.65 L 250.33 -48.98 L 250.12 -47.63 L 250.54 -45.76 L 250.22 -44.3 L 250.22 -42.74 L 250.43 -40.77 L 248.77 -39.73 L 247 -39.1 L 245.23 -39.94 L 243.57 -39.94 L 242.11 -39.73 L 240.45 -39.73 L 239.1 -39.31 L 237.12 -39.83 L 235.98 -40.87 L 235.77 -42.74 L 235.66 -43.89 L 235.98 -45.24 L 235.56 -47.01 L 235.87 -48.46 L 235.56 -50.02 L 235.56 -51.79 L 235.66 -53.46 L 235.98 -55.22 L 235.98 -56.58 L 237.43 -57.93 L 239.1 -58.66 L 240.34 -58.14 L 242.01 -57.72 L 243.78 -58.66 L 245.23 -57.82 L 246.79 -58.55 Z" stroke-linecap="round" />
</g>
</g>
</g>
<g transform="matrix(1.9211538461538462 0 0 1.9211538461538462 639.828750538965 848.9365984026792)" id="tagline-83a274b3-075b-4d63-b325-0f69b7a60451-logo"  >
<g style=""  paint-order="stroke"   >
		<g transform="matrix(1 0 0 1 0 0)" id="tagline-83a274b3-075b-4d63-b325-0f69b7a60451-logo-path-0"  >
<path style="stroke: rgb(65,144,146); stroke-width: 1.8125; stroke-dasharray: none; stroke-linecap: butt; stroke-dashoffset: 0; stroke-linejoin: miter; stroke-miterlimit: 4; fill: rgb(240,240,240); fill-rule: nonzero; opacity: 1;"  paint-order="stroke"  transform=" translate(-194.62, 9.715)" d="M 6.09 0 L 6.09 -6.53 L 11.02 -6.53 C 14.5 -6.67 17.23 -9.45 17.23 -12.99 C 17.23 -16.5 14.5 -19.29 11.02 -19.43 L 1.45 -19.43 L 1.45 0 Z M 10.21 -10.59 L 6.09 -10.59 L 6.09 -15.37 L 10.21 -15.37 C 11.63 -15.37 12.59 -14.38 12.59 -12.96 C 12.59 -11.54 11.63 -10.59 10.21 -10.59 Z M 41.82 0 L 37.44 -7.02 C 39.76 -7.98 41.38 -10.27 41.38 -12.99 C 41.38 -16.5 38.66 -19.29 35.18 -19.43 L 25.61 -19.43 L 25.61 0 L 30.25 0 L 30.25 -6.53 L 32.1 -6.53 L 36.19 0 Z M 34.37 -10.59 L 30.25 -10.59 L 30.25 -15.37 L 34.37 -15.37 C 35.79 -15.37 36.74 -14.38 36.74 -12.96 C 36.74 -11.54 35.79 -10.59 34.37 -10.59 Z M 60.29 0.32 C 64 0.32 67.28 -1.65 69.05 -4.73 C 69.95 -6.26 70.38 -7.92 70.38 -9.71 C 70.38 -13.31 68.47 -16.56 65.37 -18.39 C 63.83 -19.29 62.12 -19.75 60.29 -19.75 C 56.58 -19.75 53.3 -17.81 51.53 -14.73 C 50.63 -13.2 50.2 -11.51 50.2 -9.71 C 50.2 -6.12 52.11 -2.87 55.22 -1.04 C 56.75 -0.15 58.46 0.32 60.29 0.32 Z M 54.98 -9.71 C 54.98 -12.7 57.36 -15.08 60.29 -15.08 C 63.25 -15.08 65.6 -12.7 65.6 -9.71 C 65.6 -6.73 63.22 -4.35 60.29 -4.35 C 57.33 -4.35 54.98 -6.73 54.98 -9.71 Z M 87.7 0.32 C 91.41 0.32 94.69 -1.65 96.45 -4.73 C 97.35 -6.26 97.79 -7.92 97.79 -9.71 C 97.79 -13.31 95.87 -16.56 92.77 -18.39 C 91.23 -19.29 89.52 -19.75 87.7 -19.75 C 83.98 -19.75 80.71 -17.81 78.94 -14.73 C 78.04 -13.2 77.6 -11.51 77.6 -9.71 C 77.6 -6.12 79.52 -2.87 82.62 -1.04 C 84.16 -0.15 85.87 0.32 87.7 0.32 Z M 82.39 -9.71 C 82.39 -12.7 84.77 -15.08 87.7 -15.08 C 90.65 -15.08 93 -12.7 93 -9.71 C 93 -6.73 90.63 -4.35 87.7 -4.35 C 84.74 -4.35 82.39 -6.73 82.39 -9.71 Z M 110.81 0 L 110.81 -7.69 L 118.35 -7.69 L 118.35 -11.75 L 110.81 -11.75 L 110.81 -15.4 L 120.09 -15.4 L 120.09 -19.46 L 106.17 -19.43 L 106.17 0 Z M 149.84 0.32 C 153.55 0.32 156.83 -1.65 158.6 -4.73 C 159.5 -6.26 159.94 -7.92 159.94 -9.71 C 159.94 -13.31 158.02 -16.56 154.92 -18.39 C 153.38 -19.29 151.67 -19.75 149.84 -19.75 C 146.13 -19.75 142.85 -17.81 141.08 -14.73 C 140.19 -13.2 139.75 -11.51 139.75 -9.71 C 139.75 -6.12 141.66 -2.87 144.77 -1.04 C 146.3 -0.15 148.02 0.32 149.84 0.32 Z M 144.54 -9.71 C 144.54 -12.7 146.91 -15.08 149.84 -15.08 C 152.8 -15.08 155.15 -12.7 155.15 -9.71 C 155.15 -6.73 152.77 -4.35 149.84 -4.35 C 146.88 -4.35 144.54 -6.73 144.54 -9.71 Z M 172.96 0 L 172.96 -7.69 L 180.5 -7.69 L 180.5 -11.75 L 172.96 -11.75 L 172.96 -15.4 L 182.24 -15.4 L 182.24 -19.46 L 168.32 -19.43 L 168.32 0 Z M 212.89 0 L 212.86 -0.06 L 216.11 -11.37 L 219.36 -0.06 L 219.33 0 L 224.2 0 L 230.35 -19.43 L 225.47 -19.43 L 221.88 -8.06 L 218.63 -19.43 L 213.61 -19.43 L 210.37 -8.06 L 206.77 -19.43 L 201.9 -19.43 L 208.02 0 Z M 248.82 0.32 C 252.53 0.32 255.81 -1.65 257.58 -4.73 C 258.48 -6.26 258.91 -7.92 258.91 -9.71 C 258.91 -13.31 257 -16.56 253.89 -18.39 C 252.36 -19.29 250.65 -19.75 248.82 -19.75 C 245.11 -19.75 241.83 -17.81 240.06 -14.73 C 239.16 -13.2 238.73 -11.51 238.73 -9.71 C 238.73 -6.12 240.64 -2.87 243.74 -1.04 C 245.28 -0.15 246.99 0.32 248.82 0.32 Z M 243.51 -9.71 C 243.51 -12.7 245.89 -15.08 248.82 -15.08 C 251.78 -15.08 254.13 -12.7 254.13 -9.71 C 254.13 -6.73 251.75 -4.35 248.82 -4.35 C 245.86 -4.35 243.51 -6.73 243.51 -9.71 Z M 283.5 0 L 279.12 -7.02 C 281.44 -7.98 283.07 -10.27 283.07 -12.99 C 283.07 -16.5 280.34 -19.29 276.86 -19.43 L 267.29 -19.43 L 267.29 0 L 271.93 0 L 271.93 -6.53 L 273.79 -6.53 L 277.88 0 Z M 276.05 -10.59 L 271.93 -10.59 L 271.93 -15.37 L 276.05 -15.37 C 277.47 -15.37 278.43 -14.38 278.43 -12.96 C 278.43 -11.54 277.47 -10.59 276.05 -10.59 Z M 296.52 0 L 296.52 -4.67 L 298.61 -7.05 L 303.95 0 L 309.98 0 L 301.86 -10.7 L 309.57 -19.43 L 303.19 -19.43 L 296.52 -11.92 L 296.52 -19.43 L 291.88 -19.43 L 291.88 0 Z M 328.45 0.32 C 332.17 0.32 335.44 -1.65 337.21 -4.73 C 338.11 -6.26 338.55 -7.92 338.55 -9.71 C 338.55 -13.31 336.63 -16.56 333.53 -18.39 C 331.99 -19.29 330.28 -19.75 328.45 -19.75 C 324.74 -19.75 321.46 -17.81 319.7 -14.73 C 318.8 -13.2 318.36 -11.51 318.36 -9.71 C 318.36 -6.12 320.28 -2.87 323.38 -1.04 C 324.92 -0.15 326.63 0.32 328.45 0.32 Z M 323.15 -9.71 C 323.15 -12.7 325.52 -15.08 328.45 -15.08 C 331.41 -15.08 333.76 -12.7 333.76 -9.71 C 333.76 -6.73 331.38 -4.35 328.45 -4.35 C 325.5 -4.35 323.15 -6.73 323.15 -9.71 Z M 351.57 -8.47 L 351.57 -19.43 L 346.93 -19.43 L 346.93 -8.47 C 346.93 -5.25 348.61 -2.47 351.28 -0.9 C 352.61 -0.12 354.06 0.29 355.66 0.29 C 358.79 0.29 361.6 -1.39 363.17 -4.09 C 363.95 -5.42 364.33 -6.87 364.33 -8.47 L 364.33 -19.43 L 359.69 -19.43 L 359.69 -8.47 C 359.69 -6.06 357.98 -4.23 355.66 -4.23 C 353.31 -4.23 351.57 -6.06 351.57 -8.47 Z M 382.57 0 L 382.57 -15.4 L 387.79 -15.4 L 387.79 -19.46 L 372.71 -19.46 L 372.71 -15.4 L 377.93 -15.4 L 377.93 0 Z" stroke-linecap="round" />
</g>
</g>
</g>
<g transform="matrix(2.452913931115303 0 0 2.452913931115303 639.7730370774264 388.3688017820834)" id="logo-logo"  >
<g style=""  paint-order="stroke"   >
		<g transform="matrix(0.19825567171639413 0 0 -0.19825567171639413 0.0826726151055368 -73.33447558438658)"  >
<path style="stroke: none; stroke-width: 1; stroke-dasharray: none; stroke-linecap: butt; stroke-dashoffset: 0; stroke-linejoin: miter; stroke-miterlimit: 4; fill: rgb(240,240,240); fill-rule: nonzero; opacity: 1;"  paint-order="stroke"  transform=" translate(-699.117, -855.576)" d="M 814.898 855.574 L 699.117 971.355 L 583.336 855.574 L 699.117 739.797 L 814.898 855.574" stroke-linecap="round" />
</g>
		<g transform="matrix(0.19825567171639413 0 0 -0.19825567171639413 0.0823752315980073 25.57686508029613)"  >
<path style="stroke: none; stroke-width: 1; stroke-dasharray: none; stroke-linecap: butt; stroke-dashoffset: 0; stroke-linejoin: miter; stroke-miterlimit: 4; fill: rgb(240,240,240); fill-rule: nonzero; opacity: 1;"  paint-order="stroke"  transform=" translate(-699.1154999999999, -356.668)" d="M 735.633 713.336 L 786.793 505.60900000000004 L 699.117 461.15200000000004 L 611.4409999999999 505.60900000000004 L 662.6019999999999 713.336 L 293.281 713.336 L 293.281 613.336 L 533.816 613.336 L 496.793 467.727 L 617.219 398.023 L 532.719 332.891 L 440.18 100 L 381.617 100 L 351.617 0 L 508.05100000000004 0 L 615.5120000000001 270.449 L 699.1170000000001 334.895 L 782.719 270.44899999999996 L 890.18 0 L 1044.12 0 L 1014.1199999999999 100 L 958.0509999999999 100 L 865.512 332.89099999999996 L 781.016 398.02299999999997 L 901.4409999999999 467.727 L 864.4139999999999 613.336 L 1104.9499999999998 613.336 L 1104.9499999999998 713.336 L 735.633 713.336" stroke-linecap="round" />
</g>
		<g transform="matrix(0.19825567171639413 0 0 -0.19825567171639413 -96.56696734663655 -35.22220176497041)"  >
<path style="stroke: none; stroke-width: 1; stroke-dasharray: none; stroke-linecap: butt; stroke-dashoffset: 0; stroke-linejoin: miter; stroke-miterlimit: 4; fill: rgb(240,240,240); fill-rule: nonzero; opacity: 1;"  paint-order="stroke"  transform=" translate(-211.61699999999996, -663.338)" d="M 161.617 497.09 L 261.61699999999996 497.09 L 261.61699999999996 829.586 L 161.61699999999996 829.586 L 161.61699999999996 497.09" stroke-linecap="round" />
</g>
		<g transform="matrix(0.19825567171639413 0 0 -0.19825567171639413 -119.53208159722601 -35.22170612579109)"  >
<path style="stroke: none; stroke-width: 1; stroke-dasharray: none; stroke-linecap: butt; stroke-dashoffset: 0; stroke-linejoin: miter; stroke-miterlimit: 4; fill: rgb(240,240,240); fill-rule: nonzero; opacity: 1;"  paint-order="stroke"  transform=" translate(-95.78115, -663.3355)" d="M 55.7813 565.523 L 135.781 565.523 L 135.781 761.148 L 55.7813 761.148 L 55.7813 565.523" stroke-linecap="round" />
</g>
		<g transform="matrix(0.19825567171639413 0 0 -0.19825567171639413 96.56835513633831 -35.22220176497041)"  >
<path style="stroke: none; stroke-width: 1; stroke-dasharray: none; stroke-linecap: butt; stroke-dashoffset: 0; stroke-linejoin: miter; stroke-miterlimit: 4; fill: rgb(240,240,240); fill-rule: nonzero; opacity: 1;"  paint-order="stroke"  transform=" translate(-1185.79, -663.338)" d="M 1135.79 497.09 L 1235.79 497.09 L 1235.79 829.586 L 1135.79 829.586 L 1135.79 497.09" stroke-linecap="round" />
</g>
		<g transform="matrix(0.19825567171639413 0 0 -0.19825567171639413 119.53230959124818 -35.22170612579109)"  >
<path style="stroke: none; stroke-width: 1; stroke-dasharray: none; stroke-linecap: butt; stroke-dashoffset: 0; stroke-linejoin: miter; stroke-miterlimit: 4; fill: rgb(240,240,240); fill-rule: nonzero; opacity: 1;"  paint-order="stroke"  transform=" translate(-1301.62, -663.3355)" d="M 1261.62 761.148 L 1261.62 565.523 L 1341.62 565.523 L 1341.62 761.148 L 1261.62 761.148" stroke-linecap="round" />
</g>
		<g transform="matrix(0.19825567171639413 0 0 -0.19825567171639413 -134.81401537168546 -35.221805253627)"  >
<path style="stroke: none; stroke-width: 1; stroke-dasharray: none; stroke-linecap: butt; stroke-dashoffset: 0; stroke-linejoin: miter; stroke-miterlimit: 4; fill: rgb(240,240,240); fill-rule: nonzero; opacity: 1;"  paint-order="stroke"  transform=" translate(-18.6992, -663.336)" d="M 0 663.336 C 0 642.68 16.7422 625.938 37.3984 625.938 L 37.3984 700.734 C 16.7422 700.734 0 683.988 0 663.336" stroke-linecap="round" />
</g>
		<g transform="matrix(0.19825567171639413 0 0 -0.19825567171639413 134.81385676714802 -35.221805253627)"  >
<path style="stroke: none; stroke-width: 1; stroke-dasharray: none; stroke-linecap: butt; stroke-dashoffset: 0; stroke-linejoin: miter; stroke-miterlimit: 4; fill: rgb(240,240,240); fill-rule: nonzero; opacity: 1;"  paint-order="stroke"  transform=" translate(-1378.7, -663.336)" d="M 1397.4 663.336 C 1397.4 642.6800000000001 1380.65 625.938 1360 625.938 L 1360 700.734 C 1380.65 700.734 1397.4 683.988 1397.4 663.336" stroke-linecap="round" />
</g>
</g>
</g>
</svg>